<svg width="25" height="24" viewBox="0 0 25 24" fill="none" xmlns="http://www.w3.org/2000/svg">
<path d="M12.4876 23.8171C9.3387 23.8171 8.9675 23.8004 7.7387 23.7467C6.78045 23.7152 5.83462 23.5204 4.9419 23.1707C3.39734 22.5696 2.176 21.3478 1.5755 19.803C1.23926 18.907 1.05789 17.9604 1.03918 17.0036C0.967499 15.7774 0.967499 15.3755 0.967499 12.251C0.967499 9.09325 0.984139 8.72456 1.03918 7.50216C1.0583 6.54668 1.23965 5.60137 1.5755 4.70664C2.17535 3.1598 3.39867 1.93695 4.94574 1.33768C5.84001 1.00003 6.78555 0.818189 7.74126 0.800077C8.96366 0.730957 9.36558 0.730957 12.4876 0.730957C15.662 0.730957 16.0268 0.747597 17.2364 0.800077C18.1945 0.818342 19.1426 1.00015 20.0396 1.33768C21.5862 1.93763 22.8093 3.16024 23.4099 4.70664C23.7517 5.61441 23.934 6.57449 23.9487 7.5444C24.0204 8.77064 24.0204 9.17133 24.0204 12.2945C24.0204 15.4177 24.0025 15.8273 23.9487 17.0395C23.9297 17.9972 23.7478 18.9446 23.4111 19.8414C22.809 21.3873 21.5859 22.6095 20.0396 23.2104C19.1439 23.546 18.1978 23.7274 17.2415 23.7467C16.0191 23.8171 15.6185 23.8171 12.4876 23.8171ZM12.4441 2.7572C9.3131 2.7572 8.98798 2.77256 7.76558 2.8276C7.03597 2.83727 6.31339 2.97192 5.62926 3.22568C4.61903 3.61225 3.81963 4.4084 3.42894 5.41704C3.17322 6.10862 3.03855 6.83909 3.03086 7.5764C2.96302 8.81672 2.96302 9.14189 2.96302 12.251C2.96302 15.323 2.97454 15.6955 3.03086 16.9281C3.04233 17.658 3.17691 18.3807 3.42894 19.0657C3.82021 20.0737 4.61947 20.8692 5.62926 21.2558C6.31293 21.5113 7.03579 21.646 7.76558 21.6539C9.00462 21.7256 9.33102 21.7256 12.4441 21.7256C15.5839 21.7256 15.9091 21.7102 17.1212 21.6539C17.8513 21.6451 18.5744 21.5104 19.2588 21.2558C20.2628 20.8659 21.0571 20.0722 21.4476 19.0683C21.7028 18.3762 21.8374 17.6453 21.8457 16.9076H21.8598C21.9148 15.684 21.9148 15.3576 21.9148 12.2305C21.9148 9.10349 21.9007 8.77448 21.8457 7.55208C21.8342 6.82307 21.6995 6.10122 21.4476 5.41704C21.058 4.4117 20.2636 3.61646 19.2588 3.22568C18.5745 2.97064 17.8513 2.83596 17.1212 2.8276C15.8835 2.7572 15.5596 2.7572 12.4441 2.7572ZM12.4876 18.1633C10.0939 18.1649 7.93508 16.7242 7.01789 14.5134C6.1007 12.3025 6.60578 9.75667 8.29758 8.0634C9.98944 6.37012 12.5347 5.86283 14.7464 6.77811C16.9581 7.69339 18.4006 9.85101 18.4012 12.2446C18.3976 15.51 15.7529 18.1569 12.4876 18.1633ZM12.4876 8.402C10.3668 8.402 8.6475 10.1213 8.6475 12.242C8.6475 14.3629 10.3668 16.082 12.4876 16.082C14.6083 16.082 16.3276 14.3629 16.3276 12.242C16.3226 10.1233 14.6063 8.40692 12.4876 8.402ZM18.6316 7.48937C17.8705 7.48654 17.2555 6.86803 17.2569 6.10697C17.2583 5.34591 17.8756 4.72969 18.6367 4.72969C19.3977 4.72969 20.015 5.34589 20.0166 6.10696C20.0168 6.47415 19.8709 6.82635 19.6111 7.08575C19.3512 7.34515 18.9987 7.49038 18.6316 7.48937Z" fill="#E6E6E6"/>
</svg>
