<svg width="24" height="24" viewBox="0 0 24 24" fill="none" xmlns="http://www.w3.org/2000/svg">
<path fill-rule="evenodd" clip-rule="evenodd" d="M3.04001 -0.000244141H20.96C22.3739 -0.000244141 23.52 1.14591 23.52 2.55976V20.4797C23.52 21.8936 22.3739 23.0397 20.96 23.0397H3.04001C1.62616 23.0397 0.480011 21.8936 0.480011 20.4797V2.55976C0.480011 1.14591 1.62616 -0.000244141 3.04001 -0.000244141ZM6.88001 19.1997C7.23347 19.1997 7.52001 18.9131 7.52001 18.5597V9.59973C7.52001 9.24632 7.23347 8.95973 6.88001 8.95973H4.96001C4.60655 8.95973 4.32001 9.24632 4.32001 9.59973V18.5597C4.32001 18.9131 4.60655 19.1997 4.96001 19.1997H6.88001ZM5.92001 7.67976C4.85962 7.67976 4.00001 6.82015 4.00001 5.75976C4.00001 4.69937 4.85962 3.83976 5.92001 3.83976C6.9804 3.83976 7.84001 4.69937 7.84001 5.75976C7.84001 6.82015 6.9804 7.67976 5.92001 7.67976ZM19.04 19.1997C19.3934 19.1997 19.68 18.9131 19.68 18.5597V12.6717C19.7216 10.6376 18.2177 8.90149 16.1984 8.65253C14.7866 8.52363 13.4186 9.18296 12.64 10.3677V9.59973C12.64 9.24632 12.3534 8.95973 12 8.95973H10.08C9.7266 8.95973 9.44001 9.24632 9.44001 9.59973V18.5597C9.44001 18.9131 9.7266 19.1997 10.08 19.1997H12C12.3534 19.1997 12.64 18.9131 12.64 18.5597V13.7597C12.64 12.6994 13.4997 11.8397 14.56 11.8397C15.6204 11.8397 16.48 12.6994 16.48 13.7597V18.5597C16.48 18.9131 16.7666 19.1997 17.12 19.1997H19.04Z" fill="#E6E6E6"/>
</svg>
