<svg width="27" height="19" viewBox="0 0 27 19" fill="none" xmlns="http://www.w3.org/2000/svg">
<path d="M13.5691 18.447H13.5431C13.4622 18.447 5.36723 18.4314 3.3249 17.8768C2.20185 17.5744 1.32478 16.6966 1.02287 15.5734C0.65561 13.5017 0.478273 11.4004 0.493039 9.29642C0.483553 7.18887 0.665701 5.08477 1.03722 3.0102C1.34744 1.88595 2.22064 1.00434 3.34186 0.683377C5.32808 0.161377 13.1999 0.161377 13.5339 0.161377H13.5614C13.6435 0.161377 21.7594 0.177034 23.7808 0.731663C24.9016 1.03574 25.7768 1.91151 26.0802 3.03238C26.4592 5.11196 26.6371 7.22316 26.6114 9.33687C26.6206 11.4418 26.4379 13.5433 26.0659 15.6153C25.7601 16.737 24.8825 17.6126 23.76 17.916C21.7763 18.4419 13.9033 18.447 13.5691 18.447ZM10.9592 5.38796L10.9527 13.2179L17.7543 9.30293L10.9592 5.38796Z" fill="#E6E6E6"/>
</svg>
